<?xml version="1.0" encoding="us-ascii" standalone="no"?><svg xmlns="http://www.w3.org/2000/svg" xmlns:xlink="http://www.w3.org/1999/xlink" contentStyleType="text/css" height="436px" preserveAspectRatio="none" style="width:774px;height:436px;background:#FFFFFF;" version="1.1" viewBox="0 0 774 436" width="774px" zoomAndPan="magnify"><defs/><g><!--class TimeService--><g id="elem_TimeService"><rect codeLine="3" fill="#F1F1F1" height="83.2188" id="TimeService" rx="2.5" ry="2.5" style="stroke:#181818;stroke-width:0.5;" width="250" x="7" y="346"/><ellipse cx="88.75" cy="362" fill="#ADD1B2" rx="11" ry="11" style="stroke:#181818;stroke-width:1.0;"/><path d="M91.5156,357.875 Q91.6719,357.6563 91.8594,357.5469 Q92.0469,357.4375 92.2656,357.4375 Q92.6406,357.4375 92.875,357.7031 Q93.1094,357.9531 93.1094,358.5625 L93.1094,360.0156 Q93.1094,360.625 92.875,360.8906 Q92.6406,361.1563 92.2656,361.1563 Q91.9219,361.1563 91.7188,360.9531 Q91.5156,360.7656 91.4063,360.25 Q91.3594,359.8906 91.1719,359.7031 Q90.8438,359.3281 90.2344,359.1094 Q89.625,358.8906 89,358.8906 Q88.2344,358.8906 87.5938,359.2188 Q86.9688,359.5469 86.4688,360.2969 Q85.9844,361.0469 85.9844,362.0781 L85.9844,363.1719 Q85.9844,364.4063 86.875,365.2344 Q87.7656,366.0469 89.3594,366.0469 Q90.2969,366.0469 90.9531,365.7969 Q91.3438,365.6406 91.7656,365.2031 Q92.0313,364.9375 92.1719,364.8594 Q92.3281,364.7813 92.5313,364.7813 Q92.8594,364.7813 93.1094,365.0469 Q93.375,365.2969 93.375,365.6406 Q93.375,365.9844 93.0313,366.3906 Q92.5313,366.9688 91.7344,367.2969 Q90.6563,367.75 89.3594,367.75 Q87.8438,367.75 86.6406,367.125 Q85.6563,366.625 84.9688,365.5625 Q84.2813,364.4844 84.2813,363.2031 L84.2813,362.0469 Q84.2813,360.7188 84.8906,359.5781 Q85.5156,358.4219 86.6094,357.8125 Q87.7031,357.1875 88.9375,357.1875 Q89.6719,357.1875 90.3125,357.3594 Q90.9688,357.5156 91.5156,357.875 Z " fill="#000000"/><text fill="#000000" font-family="sans-serif" font-size="14" lengthAdjust="spacing" textLength="78" x="109.25" y="367.7285">TimeService</text><line style="stroke:#181818;stroke-width:0.5;" x1="8" x2="256" y1="378" y2="378"/><line style="stroke:#181818;stroke-width:0.5;" x1="8" x2="256" y1="386" y2="386"/><ellipse cx="18" cy="400.3047" fill="#84BE84" rx="3" ry="3" style="stroke:#038048;stroke-width:1.0;"/><text fill="#000000" font-family="sans-serif" font-size="14" lengthAdjust="spacing" textLength="88" x="27" y="404.5332">TimeService()</text><ellipse cx="18" cy="417.9141" fill="#84BE84" rx="3" ry="3" style="stroke:#038048;stroke-width:1.0;"/><text fill="#000000" font-family="sans-serif" font-size="14" lengthAdjust="spacing" textLength="224" x="27" y="422.1426">receiveUnixTimestamp(): time_point</text></g><!--class Clock--><g id="elem_Clock"><rect codeLine="9" fill="#F1F1F1" height="100.8281" id="Clock" rx="2.5" ry="2.5" style="stroke:#181818;stroke-width:0.5;" width="246" x="9" y="176.5"/><ellipse cx="110.25" cy="192.5" fill="#ADD1B2" rx="11" ry="11" style="stroke:#181818;stroke-width:1.0;"/><path d="M113.0156,188.375 Q113.1719,188.1563 113.3594,188.0469 Q113.5469,187.9375 113.7656,187.9375 Q114.1406,187.9375 114.375,188.2031 Q114.6094,188.4531 114.6094,189.0625 L114.6094,190.5156 Q114.6094,191.125 114.375,191.3906 Q114.1406,191.6563 113.7656,191.6563 Q113.4219,191.6563 113.2188,191.4531 Q113.0156,191.2656 112.9063,190.75 Q112.8594,190.3906 112.6719,190.2031 Q112.3438,189.8281 111.7344,189.6094 Q111.125,189.3906 110.5,189.3906 Q109.7344,189.3906 109.0938,189.7188 Q108.4688,190.0469 107.9688,190.7969 Q107.4844,191.5469 107.4844,192.5781 L107.4844,193.6719 Q107.4844,194.9063 108.375,195.7344 Q109.2656,196.5469 110.8594,196.5469 Q111.7969,196.5469 112.4531,196.2969 Q112.8438,196.1406 113.2656,195.7031 Q113.5313,195.4375 113.6719,195.3594 Q113.8281,195.2813 114.0313,195.2813 Q114.3594,195.2813 114.6094,195.5469 Q114.875,195.7969 114.875,196.1406 Q114.875,196.4844 114.5313,196.8906 Q114.0313,197.4688 113.2344,197.7969 Q112.1563,198.25 110.8594,198.25 Q109.3438,198.25 108.1406,197.625 Q107.1563,197.125 106.4688,196.0625 Q105.7813,194.9844 105.7813,193.7031 L105.7813,192.5469 Q105.7813,191.2188 106.3906,190.0781 Q107.0156,188.9219 108.1094,188.3125 Q109.2031,187.6875 110.4375,187.6875 Q111.1719,187.6875 111.8125,187.8594 Q112.4688,188.0156 113.0156,188.375 Z " fill="#000000"/><text fill="#000000" font-family="sans-serif" font-size="14" lengthAdjust="spacing" textLength="35" x="130.75" y="198.2285">Clock</text><line style="stroke:#181818;stroke-width:0.5;" x1="10" x2="254" y1="208.5" y2="208.5"/><rect fill="none" height="6" style="stroke:#C82930;stroke-width:1.0;" width="6" x="17" y="219.8047"/><text fill="#000000" font-family="sans-serif" font-size="14" lengthAdjust="spacing" textLength="172" x="29" y="227.0332">timeElapsedSince: duration</text><line style="stroke:#181818;stroke-width:0.5;" x1="10" x2="254" y1="234.1094" y2="234.1094"/><ellipse cx="20" cy="248.4141" fill="#84BE84" rx="3" ry="3" style="stroke:#038048;stroke-width:1.0;"/><text fill="#000000" font-family="sans-serif" font-size="14" lengthAdjust="spacing" textLength="45" x="29" y="252.6426">Clock()</text><ellipse cx="20" cy="266.0234" fill="#84BE84" rx="3" ry="3" style="stroke:#038048;stroke-width:1.0;"/><text fill="#000000" font-family="sans-serif" font-size="14" lengthAdjust="spacing" textLength="220" x="29" y="270.252">getCurrentTimestamp(): time_point</text></g><!--class AlarmClock--><g id="elem_AlarmClock"><rect codeLine="17" fill="#F1F1F1" height="100.8281" id="AlarmClock" rx="2.5" ry="2.5" style="stroke:#181818;stroke-width:0.5;" width="225" x="361.5" y="7"/><ellipse cx="434.25" cy="23" fill="#ADD1B2" rx="11" ry="11" style="stroke:#181818;stroke-width:1.0;"/><path d="M437.0156,18.875 Q437.1719,18.6563 437.3594,18.5469 Q437.5469,18.4375 437.7656,18.4375 Q438.1406,18.4375 438.375,18.7031 Q438.6094,18.9531 438.6094,19.5625 L438.6094,21.0156 Q438.6094,21.625 438.375,21.8906 Q438.1406,22.1563 437.7656,22.1563 Q437.4219,22.1563 437.2188,21.9531 Q437.0156,21.7656 436.9063,21.25 Q436.8594,20.8906 436.6719,20.7031 Q436.3438,20.3281 435.7344,20.1094 Q435.125,19.8906 434.5,19.8906 Q433.7344,19.8906 433.0938,20.2188 Q432.4688,20.5469 431.9688,21.2969 Q431.4844,22.0469 431.4844,23.0781 L431.4844,24.1719 Q431.4844,25.4063 432.375,26.2344 Q433.2656,27.0469 434.8594,27.0469 Q435.7969,27.0469 436.4531,26.7969 Q436.8438,26.6406 437.2656,26.2031 Q437.5313,25.9375 437.6719,25.8594 Q437.8281,25.7813 438.0313,25.7813 Q438.3594,25.7813 438.6094,26.0469 Q438.875,26.2969 438.875,26.6406 Q438.875,26.9844 438.5313,27.3906 Q438.0313,27.9688 437.2344,28.2969 Q436.1563,28.75 434.8594,28.75 Q433.3438,28.75 432.1406,28.125 Q431.1563,27.625 430.4688,26.5625 Q429.7813,25.4844 429.7813,24.2031 L429.7813,23.0469 Q429.7813,21.7188 430.3906,20.5781 Q431.0156,19.4219 432.1094,18.8125 Q433.2031,18.1875 434.4375,18.1875 Q435.1719,18.1875 435.8125,18.3594 Q436.4688,18.5156 437.0156,18.875 Z " fill="#000000"/><text fill="#000000" font-family="sans-serif" font-size="14" lengthAdjust="spacing" textLength="71" x="454.75" y="28.7285">AlarmClock</text><line style="stroke:#181818;stroke-width:0.5;" x1="362.5" x2="585.5" y1="39" y2="39"/><rect fill="none" height="6" style="stroke:#C82930;stroke-width:1.0;" width="6" x="369.5" y="50.3047"/><text fill="#000000" font-family="sans-serif" font-size="14" lengthAdjust="spacing" textLength="135" x="381.5" y="57.5332">nextAlarm: time_point</text><line style="stroke:#181818;stroke-width:0.5;" x1="362.5" x2="585.5" y1="64.6094" y2="64.6094"/><ellipse cx="372.5" cy="78.9141" fill="#84BE84" rx="3" ry="3" style="stroke:#038048;stroke-width:1.0;"/><text fill="#000000" font-family="sans-serif" font-size="14" lengthAdjust="spacing" textLength="81" x="381.5" y="83.1426">AlarmClock()</text><ellipse cx="372.5" cy="96.5234" fill="#84BE84" rx="3" ry="3" style="stroke:#038048;stroke-width:1.0;"/><text fill="#000000" font-family="sans-serif" font-size="14" lengthAdjust="spacing" textLength="199" x="381.5" y="100.752">setNextAlarm(value: time_point)</text></g><!--class BuzzerActuator--><g id="elem_BuzzerActuator"><rect codeLine="24" fill="#F1F1F1" height="118.4375" id="BuzzerActuator" rx="2.5" ry="2.5" style="stroke:#181818;stroke-width:0.5;" width="169" x="290.5" y="168"/><ellipse cx="324.4" cy="184" fill="#ADD1B2" rx="11" ry="11" style="stroke:#181818;stroke-width:1.0;"/><path d="M327.1656,179.875 Q327.3219,179.6563 327.5094,179.5469 Q327.6969,179.4375 327.9156,179.4375 Q328.2906,179.4375 328.525,179.7031 Q328.7594,179.9531 328.7594,180.5625 L328.7594,182.0156 Q328.7594,182.625 328.525,182.8906 Q328.2906,183.1563 327.9156,183.1563 Q327.5719,183.1563 327.3688,182.9531 Q327.1656,182.7656 327.0563,182.25 Q327.0094,181.8906 326.8219,181.7031 Q326.4938,181.3281 325.8844,181.1094 Q325.275,180.8906 324.65,180.8906 Q323.8844,180.8906 323.2438,181.2188 Q322.6188,181.5469 322.1188,182.2969 Q321.6344,183.0469 321.6344,184.0781 L321.6344,185.1719 Q321.6344,186.4063 322.525,187.2344 Q323.4156,188.0469 325.0094,188.0469 Q325.9469,188.0469 326.6031,187.7969 Q326.9938,187.6406 327.4156,187.2031 Q327.6813,186.9375 327.8219,186.8594 Q327.9781,186.7813 328.1813,186.7813 Q328.5094,186.7813 328.7594,187.0469 Q329.025,187.2969 329.025,187.6406 Q329.025,187.9844 328.6813,188.3906 Q328.1813,188.9688 327.3844,189.2969 Q326.3063,189.75 325.0094,189.75 Q323.4938,189.75 322.2906,189.125 Q321.3063,188.625 320.6188,187.5625 Q319.9313,186.4844 319.9313,185.2031 L319.9313,184.0469 Q319.9313,182.7188 320.5406,181.5781 Q321.1656,180.4219 322.2594,179.8125 Q323.3531,179.1875 324.5875,179.1875 Q325.3219,179.1875 325.9625,179.3594 Q326.6188,179.5156 327.1656,179.875 Z " fill="#000000"/><text fill="#000000" font-family="sans-serif" font-size="14" lengthAdjust="spacing" textLength="95" x="342.6" y="189.7285">BuzzerActuator</text><line style="stroke:#181818;stroke-width:0.5;" x1="291.5" x2="458.5" y1="200" y2="200"/><rect fill="none" height="6" style="stroke:#C82930;stroke-width:1.0;" width="6" x="298.5" y="211.3047"/><text fill="#000000" font-family="sans-serif" font-size="14" lengthAdjust="spacing" textLength="143" x="310.5" y="218.5332">volume: unsigned char</text><line style="stroke:#181818;stroke-width:0.5;" x1="291.5" x2="458.5" y1="225.6094" y2="225.6094"/><ellipse cx="301.5" cy="239.9141" fill="#84BE84" rx="3" ry="3" style="stroke:#038048;stroke-width:1.0;"/><text fill="#000000" font-family="sans-serif" font-size="14" lengthAdjust="spacing" textLength="105" x="310.5" y="244.1426">BuzzerActuator()</text><ellipse cx="301.5" cy="257.5234" fill="#84BE84" rx="3" ry="3" style="stroke:#038048;stroke-width:1.0;"/><text fill="#000000" font-family="sans-serif" font-size="14" lengthAdjust="spacing" textLength="53" x="310.5" y="261.752">enable()</text><ellipse cx="301.5" cy="275.1328" fill="#84BE84" rx="3" ry="3" style="stroke:#038048;stroke-width:1.0;"/><text fill="#000000" font-family="sans-serif" font-size="14" lengthAdjust="spacing" textLength="55" x="310.5" y="279.3613">disable()</text></g><!--class Button--><g id="elem_Button"><rect codeLine="33" fill="#F1F1F1" height="83.2188" id="Button" rx="2.5" ry="2.5" style="stroke:#181818;stroke-width:0.5;" width="157" x="494.5" y="185.5"/><ellipse cx="548.25" cy="201.5" fill="#ADD1B2" rx="11" ry="11" style="stroke:#181818;stroke-width:1.0;"/><path d="M551.0156,197.375 Q551.1719,197.1563 551.3594,197.0469 Q551.5469,196.9375 551.7656,196.9375 Q552.1406,196.9375 552.375,197.2031 Q552.6094,197.4531 552.6094,198.0625 L552.6094,199.5156 Q552.6094,200.125 552.375,200.3906 Q552.1406,200.6563 551.7656,200.6563 Q551.4219,200.6563 551.2188,200.4531 Q551.0156,200.2656 550.9063,199.75 Q550.8594,199.3906 550.6719,199.2031 Q550.3438,198.8281 549.7344,198.6094 Q549.125,198.3906 548.5,198.3906 Q547.7344,198.3906 547.0938,198.7188 Q546.4688,199.0469 545.9688,199.7969 Q545.4844,200.5469 545.4844,201.5781 L545.4844,202.6719 Q545.4844,203.9063 546.375,204.7344 Q547.2656,205.5469 548.8594,205.5469 Q549.7969,205.5469 550.4531,205.2969 Q550.8438,205.1406 551.2656,204.7031 Q551.5313,204.4375 551.6719,204.3594 Q551.8281,204.2813 552.0313,204.2813 Q552.3594,204.2813 552.6094,204.5469 Q552.875,204.7969 552.875,205.1406 Q552.875,205.4844 552.5313,205.8906 Q552.0313,206.4688 551.2344,206.7969 Q550.1563,207.25 548.8594,207.25 Q547.3438,207.25 546.1406,206.625 Q545.1563,206.125 544.4688,205.0625 Q543.7813,203.9844 543.7813,202.7031 L543.7813,201.5469 Q543.7813,200.2188 544.3906,199.0781 Q545.0156,197.9219 546.1094,197.3125 Q547.2031,196.6875 548.4375,196.6875 Q549.1719,196.6875 549.8125,196.8594 Q550.4688,197.0156 551.0156,197.375 Z " fill="#000000"/><text fill="#000000" font-family="sans-serif" font-size="14" lengthAdjust="spacing" textLength="41" x="568.75" y="207.2285">Button</text><line style="stroke:#181818;stroke-width:0.5;" x1="495.5" x2="650.5" y1="217.5" y2="217.5"/><line style="stroke:#181818;stroke-width:0.5;" x1="495.5" x2="650.5" y1="225.5" y2="225.5"/><ellipse cx="505.5" cy="239.8047" fill="#84BE84" rx="3" ry="3" style="stroke:#038048;stroke-width:1.0;"/><text fill="#000000" font-family="sans-serif" font-size="14" lengthAdjust="spacing" textLength="97" x="514.5" y="244.0332">BuzzerSensor()</text><ellipse cx="505.5" cy="257.4141" fill="#84BE84" rx="3" ry="3" style="stroke:#038048;stroke-width:1.0;"/><text fill="#000000" font-family="sans-serif" font-size="14" lengthAdjust="spacing" textLength="131" x="514.5" y="261.6426">isPressed(): boolean</text></g><!--class Screen--><g id="elem_Screen"><rect codeLine="39" fill="#F1F1F1" height="83.2188" id="Screen" rx="2.5" ry="2.5" style="stroke:#181818;stroke-width:0.5;" width="81" x="686.5" y="185.5"/><ellipse cx="703.3" cy="201.5" fill="#ADD1B2" rx="11" ry="11" style="stroke:#181818;stroke-width:1.0;"/><path d="M706.0656,197.375 Q706.2219,197.1563 706.4094,197.0469 Q706.5969,196.9375 706.8156,196.9375 Q707.1906,196.9375 707.425,197.2031 Q707.6594,197.4531 707.6594,198.0625 L707.6594,199.5156 Q707.6594,200.125 707.425,200.3906 Q707.1906,200.6563 706.8156,200.6563 Q706.4719,200.6563 706.2688,200.4531 Q706.0656,200.2656 705.9563,199.75 Q705.9094,199.3906 705.7219,199.2031 Q705.3938,198.8281 704.7844,198.6094 Q704.175,198.3906 703.55,198.3906 Q702.7844,198.3906 702.1438,198.7188 Q701.5188,199.0469 701.0188,199.7969 Q700.5344,200.5469 700.5344,201.5781 L700.5344,202.6719 Q700.5344,203.9063 701.425,204.7344 Q702.3156,205.5469 703.9094,205.5469 Q704.8469,205.5469 705.5031,205.2969 Q705.8938,205.1406 706.3156,204.7031 Q706.5813,204.4375 706.7219,204.3594 Q706.8781,204.2813 707.0813,204.2813 Q707.4094,204.2813 707.6594,204.5469 Q707.925,204.7969 707.925,205.1406 Q707.925,205.4844 707.5813,205.8906 Q707.0813,206.4688 706.2844,206.7969 Q705.2063,207.25 703.9094,207.25 Q702.3938,207.25 701.1906,206.625 Q700.2063,206.125 699.5188,205.0625 Q698.8313,203.9844 698.8313,202.7031 L698.8313,201.5469 Q698.8313,200.2188 699.4406,199.0781 Q700.0656,197.9219 701.1594,197.3125 Q702.2531,196.6875 703.4875,196.6875 Q704.2219,196.6875 704.8625,196.8594 Q705.5188,197.0156 706.0656,197.375 Z " fill="#000000"/><text fill="#000000" font-family="sans-serif" font-size="14" lengthAdjust="spacing" textLength="45" x="717.7" y="207.2285">Screen</text><line style="stroke:#181818;stroke-width:0.5;" x1="687.5" x2="766.5" y1="217.5" y2="217.5"/><line style="stroke:#181818;stroke-width:0.5;" x1="687.5" x2="766.5" y1="225.5" y2="225.5"/><ellipse cx="697.5" cy="239.8047" fill="#84BE84" rx="3" ry="3" style="stroke:#038048;stroke-width:1.0;"/><text fill="#000000" font-family="sans-serif" font-size="14" lengthAdjust="spacing" textLength="55" x="706.5" y="244.0332">Screen()</text><ellipse cx="697.5" cy="257.4141" fill="#84BE84" rx="3" ry="3" style="stroke:#038048;stroke-width:1.0;"/><text fill="#000000" font-family="sans-serif" font-size="14" lengthAdjust="spacing" textLength="38" x="706.5" y="261.6426">print()</text></g><!--reverse link Clock to TimeService--><g id="link_Clock_TimeService"><path codeLine="45" d="M132,289.72 C132,311.69 132,325.19 132,345.98 " fill="none" id="Clock-backto-TimeService" style="stroke:#181818;stroke-width:1.0;"/><polygon fill="none" points="132,277.72,128,283.72,132,289.72,136,283.72,132,277.72" style="stroke:#181818;stroke-width:1.0;"/></g><!--reverse link AlarmClock to Clock--><g id="link_AlarmClock_Clock"><path codeLine="46" d="M362.0027,113.3573 C317.9727,134.9173 277.29,154.84 233.26,176.41 " fill="none" id="AlarmClock-backto-Clock" style="stroke:#181818;stroke-width:1.0;"/><polygon fill="none" points="372.78,108.08,365.6323,107.1262,362.0027,113.3573,369.1504,114.3111,372.78,108.08" style="stroke:#181818;stroke-width:1.0;"/></g><!--reverse link AlarmClock to BuzzerActuator--><g id="link_AlarmClock_BuzzerActuator"><path codeLine="47" d="M438.4577,118.6325 C427.4077,137.3425 420.84,148.44 409.37,167.84 " fill="none" id="AlarmClock-backto-BuzzerActuator" style="stroke:#181818;stroke-width:1.0;"/><polygon fill="none" points="444.56,108.3,438.0647,111.4322,438.4577,118.6325,444.953,115.5004,444.56,108.3" style="stroke:#181818;stroke-width:1.0;"/></g><!--reverse link AlarmClock to Button--><g id="link_AlarmClock_Button"><path codeLine="48" d="M509.5446,118.6312 C524.0746,143.2212 535.28,162.18 549,185.39 " fill="none" id="AlarmClock-backto-Button" style="stroke:#181818;stroke-width:1.0;"/><polygon fill="none" points="503.44,108.3,503.0486,115.5005,509.5446,118.6312,509.936,111.4307,503.44,108.3" style="stroke:#181818;stroke-width:1.0;"/></g><!--reverse link AlarmClock to Screen--><g id="link_AlarmClock_Screen"><path codeLine="49" d="M585.0054,113.8516 C616.4154,131.1216 639.91,145.96 669,168 C675.92,173.25 682.84,179.29 689.36,185.44 " fill="none" id="AlarmClock-backto-Screen" style="stroke:#181818;stroke-width:1.0;"/><polygon fill="none" points="574.49,108.07,577.8205,114.4659,585.0054,113.8516,581.6749,107.4557,574.49,108.07" style="stroke:#181818;stroke-width:1.0;"/></g><!--SRC=[XP71ReCm38RlUOeSGHClq5jNxJfDOZrFQR2wQC51ZeEgJdltGG8aT8Tnmh_p_r_iQAkyb- -cXnPeD1hajn1o-fvAiQeNZK236U6CvZQtFQj-gEg3vAdu69n15Zz2w1Xwiav_hN5DFF9YrU2XQmrgECWka6BZS0L6muQw0fy24I3_IpfQHVsAIpI46qTvvrYYy_cDve5VLqirAXkWDDQPzHpkTw2Zvg3OKHvlT3RqaocWDrU4JkfFHIjmRzgWWEfYyt8xuvUwe34xp6-IWbf0NyGO_qRWfxtE-xauPq5XZcWr0HGHgTxC0qtp9MJQe6kQykb5iTov5VyUnVryVxlp48zgkeVu1G00]--></g></svg>