<?xml version="1.0" encoding="us-ascii" standalone="no"?><svg xmlns="http://www.w3.org/2000/svg" xmlns:xlink="http://www.w3.org/1999/xlink" contentStyleType="text/css" height="453px" preserveAspectRatio="none" style="width:1374px;height:453px;background:#FFFFFF;" version="1.1" viewBox="0 0 1374 453" width="1374px" zoomAndPan="magnify"><defs/><g><!--class BuzzerActuator--><g id="elem_BuzzerActuator"><rect codeLine="2" fill="#F1F1F1" height="118.4375" id="BuzzerActuator" rx="2.5" ry="2.5" style="stroke:#181818;stroke-width:0.5;" width="169" x="512" y="168"/><ellipse cx="545.9" cy="184" fill="#ADD1B2" rx="11" ry="11" style="stroke:#181818;stroke-width:1.0;"/><path d="M548.6656,179.875 Q548.8219,179.6563 549.0094,179.5469 Q549.1969,179.4375 549.4156,179.4375 Q549.7906,179.4375 550.025,179.7031 Q550.2594,179.9531 550.2594,180.5625 L550.2594,182.0156 Q550.2594,182.625 550.025,182.8906 Q549.7906,183.1563 549.4156,183.1563 Q549.0719,183.1563 548.8688,182.9531 Q548.6656,182.7656 548.5563,182.25 Q548.5094,181.8906 548.3219,181.7031 Q547.9938,181.3281 547.3844,181.1094 Q546.775,180.8906 546.15,180.8906 Q545.3844,180.8906 544.7438,181.2188 Q544.1188,181.5469 543.6188,182.2969 Q543.1344,183.0469 543.1344,184.0781 L543.1344,185.1719 Q543.1344,186.4063 544.025,187.2344 Q544.9156,188.0469 546.5094,188.0469 Q547.4469,188.0469 548.1031,187.7969 Q548.4938,187.6406 548.9156,187.2031 Q549.1813,186.9375 549.3219,186.8594 Q549.4781,186.7813 549.6813,186.7813 Q550.0094,186.7813 550.2594,187.0469 Q550.525,187.2969 550.525,187.6406 Q550.525,187.9844 550.1813,188.3906 Q549.6813,188.9688 548.8844,189.2969 Q547.8063,189.75 546.5094,189.75 Q544.9938,189.75 543.7906,189.125 Q542.8063,188.625 542.1188,187.5625 Q541.4313,186.4844 541.4313,185.2031 L541.4313,184.0469 Q541.4313,182.7188 542.0406,181.5781 Q542.6656,180.4219 543.7594,179.8125 Q544.8531,179.1875 546.0875,179.1875 Q546.8219,179.1875 547.4625,179.3594 Q548.1188,179.5156 548.6656,179.875 Z " fill="#000000"/><text fill="#000000" font-family="sans-serif" font-size="14" lengthAdjust="spacing" textLength="95" x="564.1" y="189.7285">BuzzerActuator</text><line style="stroke:#181818;stroke-width:0.5;" x1="513" x2="680" y1="200" y2="200"/><rect fill="none" height="6" style="stroke:#C82930;stroke-width:1.0;" width="6" x="520" y="211.3047"/><text fill="#000000" font-family="sans-serif" font-size="14" lengthAdjust="spacing" textLength="143" x="532" y="218.5332">volume: unsigned char</text><line style="stroke:#181818;stroke-width:0.5;" x1="513" x2="680" y1="225.6094" y2="225.6094"/><ellipse cx="523" cy="239.9141" fill="#84BE84" rx="3" ry="3" style="stroke:#038048;stroke-width:1.0;"/><text fill="#000000" font-family="sans-serif" font-size="14" lengthAdjust="spacing" textLength="105" x="532" y="244.1426">BuzzerActuator()</text><ellipse cx="523" cy="257.5234" fill="#84BE84" rx="3" ry="3" style="stroke:#038048;stroke-width:1.0;"/><text fill="#000000" font-family="sans-serif" font-size="14" lengthAdjust="spacing" textLength="53" x="532" y="261.752">enable()</text><ellipse cx="523" cy="275.1328" fill="#84BE84" rx="3" ry="3" style="stroke:#038048;stroke-width:1.0;"/><text fill="#000000" font-family="sans-serif" font-size="14" lengthAdjust="spacing" textLength="55" x="532" y="279.3613">disable()</text></g><!--class BuzzerSensor--><g id="elem_BuzzerSensor"><rect codeLine="11" fill="#F1F1F1" height="83.2188" id="BuzzerSensor" rx="2.5" ry="2.5" style="stroke:#181818;stroke-width:0.5;" width="157" x="716" y="185.5"/><ellipse cx="748.1" cy="201.5" fill="#ADD1B2" rx="11" ry="11" style="stroke:#181818;stroke-width:1.0;"/><path d="M750.8656,197.375 Q751.0219,197.1563 751.2094,197.0469 Q751.3969,196.9375 751.6156,196.9375 Q751.9906,196.9375 752.225,197.2031 Q752.4594,197.4531 752.4594,198.0625 L752.4594,199.5156 Q752.4594,200.125 752.225,200.3906 Q751.9906,200.6563 751.6156,200.6563 Q751.2719,200.6563 751.0688,200.4531 Q750.8656,200.2656 750.7563,199.75 Q750.7094,199.3906 750.5219,199.2031 Q750.1938,198.8281 749.5844,198.6094 Q748.975,198.3906 748.35,198.3906 Q747.5844,198.3906 746.9438,198.7188 Q746.3188,199.0469 745.8188,199.7969 Q745.3344,200.5469 745.3344,201.5781 L745.3344,202.6719 Q745.3344,203.9063 746.225,204.7344 Q747.1156,205.5469 748.7094,205.5469 Q749.6469,205.5469 750.3031,205.2969 Q750.6938,205.1406 751.1156,204.7031 Q751.3813,204.4375 751.5219,204.3594 Q751.6781,204.2813 751.8813,204.2813 Q752.2094,204.2813 752.4594,204.5469 Q752.725,204.7969 752.725,205.1406 Q752.725,205.4844 752.3813,205.8906 Q751.8813,206.4688 751.0844,206.7969 Q750.0063,207.25 748.7094,207.25 Q747.1938,207.25 745.9906,206.625 Q745.0063,206.125 744.3188,205.0625 Q743.6313,203.9844 743.6313,202.7031 L743.6313,201.5469 Q743.6313,200.2188 744.2406,199.0781 Q744.8656,197.9219 745.9594,197.3125 Q747.0531,196.6875 748.2875,196.6875 Q749.0219,196.6875 749.6625,196.8594 Q750.3188,197.0156 750.8656,197.375 Z " fill="#000000"/><text fill="#000000" font-family="sans-serif" font-size="14" lengthAdjust="spacing" textLength="87" x="765.9" y="207.2285">BuzzerSensor</text><line style="stroke:#181818;stroke-width:0.5;" x1="717" x2="872" y1="217.5" y2="217.5"/><line style="stroke:#181818;stroke-width:0.5;" x1="717" x2="872" y1="225.5" y2="225.5"/><ellipse cx="727" cy="239.8047" fill="#84BE84" rx="3" ry="3" style="stroke:#038048;stroke-width:1.0;"/><text fill="#000000" font-family="sans-serif" font-size="14" lengthAdjust="spacing" textLength="97" x="736" y="244.0332">BuzzerSensor()</text><ellipse cx="727" cy="257.4141" fill="#84BE84" rx="3" ry="3" style="stroke:#038048;stroke-width:1.0;"/><text fill="#000000" font-family="sans-serif" font-size="14" lengthAdjust="spacing" textLength="131" x="736" y="261.6426">isPressed(): boolean</text></g><!--class PumpActuator--><g id="elem_PumpActuator"><rect codeLine="17" fill="#F1F1F1" height="100.8281" id="PumpActuator" rx="2.5" ry="2.5" style="stroke:#181818;stroke-width:0.5;" width="125" x="696" y="346"/><ellipse cx="712.8" cy="362" fill="#ADD1B2" rx="11" ry="11" style="stroke:#181818;stroke-width:1.0;"/><path d="M715.5656,357.875 Q715.7219,357.6563 715.9094,357.5469 Q716.0969,357.4375 716.3156,357.4375 Q716.6906,357.4375 716.925,357.7031 Q717.1594,357.9531 717.1594,358.5625 L717.1594,360.0156 Q717.1594,360.625 716.925,360.8906 Q716.6906,361.1563 716.3156,361.1563 Q715.9719,361.1563 715.7688,360.9531 Q715.5656,360.7656 715.4563,360.25 Q715.4094,359.8906 715.2219,359.7031 Q714.8938,359.3281 714.2844,359.1094 Q713.675,358.8906 713.05,358.8906 Q712.2844,358.8906 711.6438,359.2188 Q711.0188,359.5469 710.5188,360.2969 Q710.0344,361.0469 710.0344,362.0781 L710.0344,363.1719 Q710.0344,364.4063 710.925,365.2344 Q711.8156,366.0469 713.4094,366.0469 Q714.3469,366.0469 715.0031,365.7969 Q715.3938,365.6406 715.8156,365.2031 Q716.0813,364.9375 716.2219,364.8594 Q716.3781,364.7813 716.5813,364.7813 Q716.9094,364.7813 717.1594,365.0469 Q717.425,365.2969 717.425,365.6406 Q717.425,365.9844 717.0813,366.3906 Q716.5813,366.9688 715.7844,367.2969 Q714.7063,367.75 713.4094,367.75 Q711.8938,367.75 710.6906,367.125 Q709.7063,366.625 709.0188,365.5625 Q708.3313,364.4844 708.3313,363.2031 L708.3313,362.0469 Q708.3313,360.7188 708.9406,359.5781 Q709.5656,358.4219 710.6594,357.8125 Q711.7531,357.1875 712.9875,357.1875 Q713.7219,357.1875 714.3625,357.3594 Q715.0188,357.5156 715.5656,357.875 Z " fill="#000000"/><text fill="#000000" font-family="sans-serif" font-size="14" lengthAdjust="spacing" textLength="89" x="727.2" y="367.7285">PumpActuator</text><line style="stroke:#181818;stroke-width:0.5;" x1="697" x2="820" y1="378" y2="378"/><line style="stroke:#181818;stroke-width:0.5;" x1="697" x2="820" y1="386" y2="386"/><ellipse cx="707" cy="400.3047" fill="#84BE84" rx="3" ry="3" style="stroke:#038048;stroke-width:1.0;"/><text fill="#000000" font-family="sans-serif" font-size="14" lengthAdjust="spacing" textLength="99" x="716" y="404.5332">PumpActuator()</text><ellipse cx="707" cy="417.9141" fill="#84BE84" rx="3" ry="3" style="stroke:#038048;stroke-width:1.0;"/><text fill="#000000" font-family="sans-serif" font-size="14" lengthAdjust="spacing" textLength="97" x="716" y="422.1426">startDispense()</text><ellipse cx="707" cy="435.5234" fill="#84BE84" rx="3" ry="3" style="stroke:#038048;stroke-width:1.0;"/><text fill="#000000" font-family="sans-serif" font-size="14" lengthAdjust="spacing" textLength="96" x="716" y="439.752">stopDispense()</text></g><!--class Pump--><g id="elem_Pump"><rect codeLine="24" fill="#F1F1F1" height="100.8281" id="Pump" rx="2.5" ry="2.5" style="stroke:#181818;stroke-width:0.5;" width="123" x="908" y="176.5"/><ellipse cx="947.75" cy="192.5" fill="#ADD1B2" rx="11" ry="11" style="stroke:#181818;stroke-width:1.0;"/><path d="M950.5156,188.375 Q950.6719,188.1563 950.8594,188.0469 Q951.0469,187.9375 951.2656,187.9375 Q951.6406,187.9375 951.875,188.2031 Q952.1094,188.4531 952.1094,189.0625 L952.1094,190.5156 Q952.1094,191.125 951.875,191.3906 Q951.6406,191.6563 951.2656,191.6563 Q950.9219,191.6563 950.7188,191.4531 Q950.5156,191.2656 950.4063,190.75 Q950.3594,190.3906 950.1719,190.2031 Q949.8438,189.8281 949.2344,189.6094 Q948.625,189.3906 948,189.3906 Q947.2344,189.3906 946.5938,189.7188 Q945.9688,190.0469 945.4688,190.7969 Q944.9844,191.5469 944.9844,192.5781 L944.9844,193.6719 Q944.9844,194.9063 945.875,195.7344 Q946.7656,196.5469 948.3594,196.5469 Q949.2969,196.5469 949.9531,196.2969 Q950.3438,196.1406 950.7656,195.7031 Q951.0313,195.4375 951.1719,195.3594 Q951.3281,195.2813 951.5313,195.2813 Q951.8594,195.2813 952.1094,195.5469 Q952.375,195.7969 952.375,196.1406 Q952.375,196.4844 952.0313,196.8906 Q951.5313,197.4688 950.7344,197.7969 Q949.6563,198.25 948.3594,198.25 Q946.8438,198.25 945.6406,197.625 Q944.6563,197.125 943.9688,196.0625 Q943.2813,194.9844 943.2813,193.7031 L943.2813,192.5469 Q943.2813,191.2188 943.8906,190.0781 Q944.5156,188.9219 945.6094,188.3125 Q946.7031,187.6875 947.9375,187.6875 Q948.6719,187.6875 949.3125,187.8594 Q949.9688,188.0156 950.5156,188.375 Z " fill="#000000"/><text fill="#000000" font-family="sans-serif" font-size="14" lengthAdjust="spacing" textLength="36" x="967.25" y="198.2285">Pump</text><line style="stroke:#181818;stroke-width:0.5;" x1="909" x2="1030" y1="208.5" y2="208.5"/><line style="stroke:#181818;stroke-width:0.5;" x1="909" x2="1030" y1="216.5" y2="216.5"/><ellipse cx="919" cy="230.8047" fill="#84BE84" rx="3" ry="3" style="stroke:#038048;stroke-width:1.0;"/><text fill="#000000" font-family="sans-serif" font-size="14" lengthAdjust="spacing" textLength="46" x="928" y="235.0332">Pump()</text><ellipse cx="919" cy="248.4141" fill="#84BE84" rx="3" ry="3" style="stroke:#038048;stroke-width:1.0;"/><text fill="#000000" font-family="sans-serif" font-size="14" lengthAdjust="spacing" textLength="97" x="928" y="252.6426">startDispense()</text><ellipse cx="919" cy="266.0234" fill="#84BE84" rx="3" ry="3" style="stroke:#038048;stroke-width:1.0;"/><text fill="#000000" font-family="sans-serif" font-size="14" lengthAdjust="spacing" textLength="96" x="928" y="270.252">stopDispense()</text></g><!--class WaterLevelSensor--><g id="elem_WaterLevelSensor"><rect codeLine="31" fill="#F1F1F1" height="83.2188" id="WaterLevelSensor" rx="2.5" ry="2.5" style="stroke:#181818;stroke-width:0.5;" width="226" x="856.5" y="355"/><ellipse cx="906.75" cy="371" fill="#ADD1B2" rx="11" ry="11" style="stroke:#181818;stroke-width:1.0;"/><path d="M909.5156,366.875 Q909.6719,366.6563 909.8594,366.5469 Q910.0469,366.4375 910.2656,366.4375 Q910.6406,366.4375 910.875,366.7031 Q911.1094,366.9531 911.1094,367.5625 L911.1094,369.0156 Q911.1094,369.625 910.875,369.8906 Q910.6406,370.1563 910.2656,370.1563 Q909.9219,370.1563 909.7188,369.9531 Q909.5156,369.7656 909.4063,369.25 Q909.3594,368.8906 909.1719,368.7031 Q908.8438,368.3281 908.2344,368.1094 Q907.625,367.8906 907,367.8906 Q906.2344,367.8906 905.5938,368.2188 Q904.9688,368.5469 904.4688,369.2969 Q903.9844,370.0469 903.9844,371.0781 L903.9844,372.1719 Q903.9844,373.4063 904.875,374.2344 Q905.7656,375.0469 907.3594,375.0469 Q908.2969,375.0469 908.9531,374.7969 Q909.3438,374.6406 909.7656,374.2031 Q910.0313,373.9375 910.1719,373.8594 Q910.3281,373.7813 910.5313,373.7813 Q910.8594,373.7813 911.1094,374.0469 Q911.375,374.2969 911.375,374.6406 Q911.375,374.9844 911.0313,375.3906 Q910.5313,375.9688 909.7344,376.2969 Q908.6563,376.75 907.3594,376.75 Q905.8438,376.75 904.6406,376.125 Q903.6563,375.625 902.9688,374.5625 Q902.2813,373.4844 902.2813,372.2031 L902.2813,371.0469 Q902.2813,369.7188 902.8906,368.5781 Q903.5156,367.4219 904.6094,366.8125 Q905.7031,366.1875 906.9375,366.1875 Q907.6719,366.1875 908.3125,366.3594 Q908.9688,366.5156 909.5156,366.875 Z " fill="#000000"/><text fill="#000000" font-family="sans-serif" font-size="14" lengthAdjust="spacing" textLength="117" x="927.25" y="376.7285">WaterLevelSensor</text><line style="stroke:#181818;stroke-width:0.5;" x1="857.5" x2="1081.5" y1="387" y2="387"/><line style="stroke:#181818;stroke-width:0.5;" x1="857.5" x2="1081.5" y1="395" y2="395"/><ellipse cx="867.5" cy="409.3047" fill="#84BE84" rx="3" ry="3" style="stroke:#038048;stroke-width:1.0;"/><text fill="#000000" font-family="sans-serif" font-size="14" lengthAdjust="spacing" textLength="127" x="876.5" y="413.5332">WaterLevelSensor()</text><ellipse cx="867.5" cy="426.9141" fill="#84BE84" rx="3" ry="3" style="stroke:#038048;stroke-width:1.0;"/><text fill="#000000" font-family="sans-serif" font-size="14" lengthAdjust="spacing" textLength="200" x="876.5" y="431.1426">getWaterLevel(): unsigned char</text></g><!--class RoomTemperatureSensor--><g id="elem_RoomTemperatureSensor"><rect codeLine="36" fill="#F1F1F1" height="83.2188" id="RoomTemperatureSensor" rx="2.5" ry="2.5" style="stroke:#181818;stroke-width:0.5;" width="284" x="942.5" y="16"/><ellipse cx="998.25" cy="32" fill="#ADD1B2" rx="11" ry="11" style="stroke:#181818;stroke-width:1.0;"/><path d="M1001.0156,27.875 Q1001.1719,27.6563 1001.3594,27.5469 Q1001.5469,27.4375 1001.7656,27.4375 Q1002.1406,27.4375 1002.375,27.7031 Q1002.6094,27.9531 1002.6094,28.5625 L1002.6094,30.0156 Q1002.6094,30.625 1002.375,30.8906 Q1002.1406,31.1563 1001.7656,31.1563 Q1001.4219,31.1563 1001.2188,30.9531 Q1001.0156,30.7656 1000.9063,30.25 Q1000.8594,29.8906 1000.6719,29.7031 Q1000.3438,29.3281 999.7344,29.1094 Q999.125,28.8906 998.5,28.8906 Q997.7344,28.8906 997.0938,29.2188 Q996.4688,29.5469 995.9688,30.2969 Q995.4844,31.0469 995.4844,32.0781 L995.4844,33.1719 Q995.4844,34.4063 996.375,35.2344 Q997.2656,36.0469 998.8594,36.0469 Q999.7969,36.0469 1000.4531,35.7969 Q1000.8438,35.6406 1001.2656,35.2031 Q1001.5313,34.9375 1001.6719,34.8594 Q1001.8281,34.7813 1002.0313,34.7813 Q1002.3594,34.7813 1002.6094,35.0469 Q1002.875,35.2969 1002.875,35.6406 Q1002.875,35.9844 1002.5313,36.3906 Q1002.0313,36.9688 1001.2344,37.2969 Q1000.1563,37.75 998.8594,37.75 Q997.3438,37.75 996.1406,37.125 Q995.1563,36.625 994.4688,35.5625 Q993.7813,34.4844 993.7813,33.2031 L993.7813,32.0469 Q993.7813,30.7188 994.3906,29.5781 Q995.0156,28.4219 996.1094,27.8125 Q997.2031,27.1875 998.4375,27.1875 Q999.1719,27.1875 999.8125,27.3594 Q1000.4688,27.5156 1001.0156,27.875 Z " fill="#000000"/><text fill="#000000" font-family="sans-serif" font-size="14" lengthAdjust="spacing" textLength="164" x="1018.75" y="37.7285">RoomTemperatureSensor</text><line style="stroke:#181818;stroke-width:0.5;" x1="943.5" x2="1225.5" y1="48" y2="48"/><line style="stroke:#181818;stroke-width:0.5;" x1="943.5" x2="1225.5" y1="56" y2="56"/><ellipse cx="953.5" cy="70.3047" fill="#84BE84" rx="3" ry="3" style="stroke:#038048;stroke-width:1.0;"/><text fill="#000000" font-family="sans-serif" font-size="14" lengthAdjust="spacing" textLength="174" x="962.5" y="74.5332">RoomTemperatureSensor()</text><ellipse cx="953.5" cy="87.9141" fill="#84BE84" rx="3" ry="3" style="stroke:#038048;stroke-width:1.0;"/><text fill="#000000" font-family="sans-serif" font-size="14" lengthAdjust="spacing" textLength="258" x="962.5" y="92.1426">getCurrentTemperature(): unsigned char</text></g><!--class DataStorageService--><g id="elem_DataStorageService"><rect codeLine="41" fill="#F1F1F1" height="83.2188" id="DataStorageService" rx="2.5" ry="2.5" style="stroke:#181818;stroke-width:0.5;" width="222" x="254.5" y="185.5"/><ellipse cx="297.85" cy="201.5" fill="#ADD1B2" rx="11" ry="11" style="stroke:#181818;stroke-width:1.0;"/><path d="M300.6156,197.375 Q300.7719,197.1563 300.9594,197.0469 Q301.1469,196.9375 301.3656,196.9375 Q301.7406,196.9375 301.975,197.2031 Q302.2094,197.4531 302.2094,198.0625 L302.2094,199.5156 Q302.2094,200.125 301.975,200.3906 Q301.7406,200.6563 301.3656,200.6563 Q301.0219,200.6563 300.8188,200.4531 Q300.6156,200.2656 300.5063,199.75 Q300.4594,199.3906 300.2719,199.2031 Q299.9438,198.8281 299.3344,198.6094 Q298.725,198.3906 298.1,198.3906 Q297.3344,198.3906 296.6938,198.7188 Q296.0688,199.0469 295.5688,199.7969 Q295.0844,200.5469 295.0844,201.5781 L295.0844,202.6719 Q295.0844,203.9063 295.975,204.7344 Q296.8656,205.5469 298.4594,205.5469 Q299.3969,205.5469 300.0531,205.2969 Q300.4438,205.1406 300.8656,204.7031 Q301.1313,204.4375 301.2719,204.3594 Q301.4281,204.2813 301.6313,204.2813 Q301.9594,204.2813 302.2094,204.5469 Q302.475,204.7969 302.475,205.1406 Q302.475,205.4844 302.1313,205.8906 Q301.6313,206.4688 300.8344,206.7969 Q299.7563,207.25 298.4594,207.25 Q296.9438,207.25 295.7406,206.625 Q294.7563,206.125 294.0688,205.0625 Q293.3813,203.9844 293.3813,202.7031 L293.3813,201.5469 Q293.3813,200.2188 293.9906,199.0781 Q294.6156,197.9219 295.7094,197.3125 Q296.8031,196.6875 298.0375,196.6875 Q298.7719,196.6875 299.4125,196.8594 Q300.0688,197.0156 300.6156,197.375 Z " fill="#000000"/><text fill="#000000" font-family="sans-serif" font-size="14" lengthAdjust="spacing" textLength="127" x="318.15" y="207.2285">DataStorageService</text><line style="stroke:#181818;stroke-width:0.5;" x1="255.5" x2="475.5" y1="217.5" y2="217.5"/><line style="stroke:#181818;stroke-width:0.5;" x1="255.5" x2="475.5" y1="225.5" y2="225.5"/><ellipse cx="265.5" cy="239.8047" fill="#84BE84" rx="3" ry="3" style="stroke:#038048;stroke-width:1.0;"/><text fill="#000000" font-family="sans-serif" font-size="14" lengthAdjust="spacing" textLength="196" x="274.5" y="244.0332">DataStorageService(url: string)</text><ellipse cx="265.5" cy="257.4141" fill="#84BE84" rx="3" ry="3" style="stroke:#038048;stroke-width:1.0;"/><text fill="#000000" font-family="sans-serif" font-size="14" lengthAdjust="spacing" textLength="164" x="274.5" y="261.6426">sendBuzzerActivateTime()</text></g><g id="elem_GMN9"><path d="M6,205.5 L6,248.2031 A0,0 0 0 0 6,248.2031 L219,248.2031 A0,0 0 0 0 219,248.2031 L219,231 L254.37,227 L219,223 L219,215.5 L209,205.5 L6,205.5 A0,0 0 0 0 6,205.5 " fill="#FEFFDD" style="stroke:#181818;stroke-width:0.5;"/><path d="M209,205.5 L209,215.5 L219,215.5 L209,205.5 " fill="#FEFFDD" style="stroke:#181818;stroke-width:0.5;"/><text fill="#000000" font-family="sans-serif" font-size="13" lengthAdjust="spacing" textLength="161" x="12" y="223.9951">This class is responsible for</text><text fill="#000000" font-family="sans-serif" font-size="13" lengthAdjust="spacing" textLength="188" x="16" y="240.3467">sending the data with LoRaWAN</text></g><!--class TimeService--><g id="elem_TimeService"><rect codeLine="47" fill="#F1F1F1" height="83.2188" id="TimeService" rx="2.5" ry="2.5" style="stroke:#181818;stroke-width:0.5;" width="250" x="1117.5" y="355"/><ellipse cx="1199.25" cy="371" fill="#ADD1B2" rx="11" ry="11" style="stroke:#181818;stroke-width:1.0;"/><path d="M1202.0156,366.875 Q1202.1719,366.6563 1202.3594,366.5469 Q1202.5469,366.4375 1202.7656,366.4375 Q1203.1406,366.4375 1203.375,366.7031 Q1203.6094,366.9531 1203.6094,367.5625 L1203.6094,369.0156 Q1203.6094,369.625 1203.375,369.8906 Q1203.1406,370.1563 1202.7656,370.1563 Q1202.4219,370.1563 1202.2188,369.9531 Q1202.0156,369.7656 1201.9063,369.25 Q1201.8594,368.8906 1201.6719,368.7031 Q1201.3438,368.3281 1200.7344,368.1094 Q1200.125,367.8906 1199.5,367.8906 Q1198.7344,367.8906 1198.0938,368.2188 Q1197.4688,368.5469 1196.9688,369.2969 Q1196.4844,370.0469 1196.4844,371.0781 L1196.4844,372.1719 Q1196.4844,373.4063 1197.375,374.2344 Q1198.2656,375.0469 1199.8594,375.0469 Q1200.7969,375.0469 1201.4531,374.7969 Q1201.8438,374.6406 1202.2656,374.2031 Q1202.5313,373.9375 1202.6719,373.8594 Q1202.8281,373.7813 1203.0313,373.7813 Q1203.3594,373.7813 1203.6094,374.0469 Q1203.875,374.2969 1203.875,374.6406 Q1203.875,374.9844 1203.5313,375.3906 Q1203.0313,375.9688 1202.2344,376.2969 Q1201.1563,376.75 1199.8594,376.75 Q1198.3438,376.75 1197.1406,376.125 Q1196.1563,375.625 1195.4688,374.5625 Q1194.7813,373.4844 1194.7813,372.2031 L1194.7813,371.0469 Q1194.7813,369.7188 1195.3906,368.5781 Q1196.0156,367.4219 1197.1094,366.8125 Q1198.2031,366.1875 1199.4375,366.1875 Q1200.1719,366.1875 1200.8125,366.3594 Q1201.4688,366.5156 1202.0156,366.875 Z " fill="#000000"/><text fill="#000000" font-family="sans-serif" font-size="14" lengthAdjust="spacing" textLength="78" x="1219.75" y="376.7285">TimeService</text><line style="stroke:#181818;stroke-width:0.5;" x1="1118.5" x2="1366.5" y1="387" y2="387"/><line style="stroke:#181818;stroke-width:0.5;" x1="1118.5" x2="1366.5" y1="395" y2="395"/><ellipse cx="1128.5" cy="409.3047" fill="#84BE84" rx="3" ry="3" style="stroke:#038048;stroke-width:1.0;"/><text fill="#000000" font-family="sans-serif" font-size="14" lengthAdjust="spacing" textLength="88" x="1137.5" y="413.5332">TimeService()</text><ellipse cx="1128.5" cy="426.9141" fill="#84BE84" rx="3" ry="3" style="stroke:#038048;stroke-width:1.0;"/><text fill="#000000" font-family="sans-serif" font-size="14" lengthAdjust="spacing" textLength="224" x="1137.5" y="431.1426">receiveUnixTimestamp(): time_point</text></g><!--class Clock--><g id="elem_Clock"><rect codeLine="53" fill="#F1F1F1" height="100.8281" id="Clock" rx="2.5" ry="2.5" style="stroke:#181818;stroke-width:0.5;" width="246" x="1093.5" y="176.5"/><ellipse cx="1194.75" cy="192.5" fill="#ADD1B2" rx="11" ry="11" style="stroke:#181818;stroke-width:1.0;"/><path d="M1197.5156,188.375 Q1197.6719,188.1563 1197.8594,188.0469 Q1198.0469,187.9375 1198.2656,187.9375 Q1198.6406,187.9375 1198.875,188.2031 Q1199.1094,188.4531 1199.1094,189.0625 L1199.1094,190.5156 Q1199.1094,191.125 1198.875,191.3906 Q1198.6406,191.6563 1198.2656,191.6563 Q1197.9219,191.6563 1197.7188,191.4531 Q1197.5156,191.2656 1197.4063,190.75 Q1197.3594,190.3906 1197.1719,190.2031 Q1196.8438,189.8281 1196.2344,189.6094 Q1195.625,189.3906 1195,189.3906 Q1194.2344,189.3906 1193.5938,189.7188 Q1192.9688,190.0469 1192.4688,190.7969 Q1191.9844,191.5469 1191.9844,192.5781 L1191.9844,193.6719 Q1191.9844,194.9063 1192.875,195.7344 Q1193.7656,196.5469 1195.3594,196.5469 Q1196.2969,196.5469 1196.9531,196.2969 Q1197.3438,196.1406 1197.7656,195.7031 Q1198.0313,195.4375 1198.1719,195.3594 Q1198.3281,195.2813 1198.5313,195.2813 Q1198.8594,195.2813 1199.1094,195.5469 Q1199.375,195.7969 1199.375,196.1406 Q1199.375,196.4844 1199.0313,196.8906 Q1198.5313,197.4688 1197.7344,197.7969 Q1196.6563,198.25 1195.3594,198.25 Q1193.8438,198.25 1192.6406,197.625 Q1191.6563,197.125 1190.9688,196.0625 Q1190.2813,194.9844 1190.2813,193.7031 L1190.2813,192.5469 Q1190.2813,191.2188 1190.8906,190.0781 Q1191.5156,188.9219 1192.6094,188.3125 Q1193.7031,187.6875 1194.9375,187.6875 Q1195.6719,187.6875 1196.3125,187.8594 Q1196.9688,188.0156 1197.5156,188.375 Z " fill="#000000"/><text fill="#000000" font-family="sans-serif" font-size="14" lengthAdjust="spacing" textLength="35" x="1215.25" y="198.2285">Clock</text><line style="stroke:#181818;stroke-width:0.5;" x1="1094.5" x2="1338.5" y1="208.5" y2="208.5"/><rect fill="none" height="6" style="stroke:#C82930;stroke-width:1.0;" width="6" x="1101.5" y="219.8047"/><text fill="#000000" font-family="sans-serif" font-size="14" lengthAdjust="spacing" textLength="172" x="1113.5" y="227.0332">timeElapsedSince: duration</text><line style="stroke:#181818;stroke-width:0.5;" x1="1094.5" x2="1338.5" y1="234.1094" y2="234.1094"/><ellipse cx="1104.5" cy="248.4141" fill="#84BE84" rx="3" ry="3" style="stroke:#038048;stroke-width:1.0;"/><text fill="#000000" font-family="sans-serif" font-size="14" lengthAdjust="spacing" textLength="45" x="1113.5" y="252.6426">Clock()</text><ellipse cx="1104.5" cy="266.0234" fill="#84BE84" rx="3" ry="3" style="stroke:#038048;stroke-width:1.0;"/><text fill="#000000" font-family="sans-serif" font-size="14" lengthAdjust="spacing" textLength="220" x="1113.5" y="270.252">getCurrentTimestamp(): time_point</text></g><!--class AlarmClock--><g id="elem_AlarmClock"><rect codeLine="61" fill="#F1F1F1" height="100.8281" id="AlarmClock" rx="2.5" ry="2.5" style="stroke:#181818;stroke-width:0.5;" width="225" x="682" y="7"/><ellipse cx="754.75" cy="23" fill="#ADD1B2" rx="11" ry="11" style="stroke:#181818;stroke-width:1.0;"/><path d="M757.5156,18.875 Q757.6719,18.6563 757.8594,18.5469 Q758.0469,18.4375 758.2656,18.4375 Q758.6406,18.4375 758.875,18.7031 Q759.1094,18.9531 759.1094,19.5625 L759.1094,21.0156 Q759.1094,21.625 758.875,21.8906 Q758.6406,22.1563 758.2656,22.1563 Q757.9219,22.1563 757.7188,21.9531 Q757.5156,21.7656 757.4063,21.25 Q757.3594,20.8906 757.1719,20.7031 Q756.8438,20.3281 756.2344,20.1094 Q755.625,19.8906 755,19.8906 Q754.2344,19.8906 753.5938,20.2188 Q752.9688,20.5469 752.4688,21.2969 Q751.9844,22.0469 751.9844,23.0781 L751.9844,24.1719 Q751.9844,25.4063 752.875,26.2344 Q753.7656,27.0469 755.3594,27.0469 Q756.2969,27.0469 756.9531,26.7969 Q757.3438,26.6406 757.7656,26.2031 Q758.0313,25.9375 758.1719,25.8594 Q758.3281,25.7813 758.5313,25.7813 Q758.8594,25.7813 759.1094,26.0469 Q759.375,26.2969 759.375,26.6406 Q759.375,26.9844 759.0313,27.3906 Q758.5313,27.9688 757.7344,28.2969 Q756.6563,28.75 755.3594,28.75 Q753.8438,28.75 752.6406,28.125 Q751.6563,27.625 750.9688,26.5625 Q750.2813,25.4844 750.2813,24.2031 L750.2813,23.0469 Q750.2813,21.7188 750.8906,20.5781 Q751.5156,19.4219 752.6094,18.8125 Q753.7031,18.1875 754.9375,18.1875 Q755.6719,18.1875 756.3125,18.3594 Q756.9688,18.5156 757.5156,18.875 Z " fill="#000000"/><text fill="#000000" font-family="sans-serif" font-size="14" lengthAdjust="spacing" textLength="71" x="775.25" y="28.7285">AlarmClock</text><line style="stroke:#181818;stroke-width:0.5;" x1="683" x2="906" y1="39" y2="39"/><rect fill="none" height="6" style="stroke:#C82930;stroke-width:1.0;" width="6" x="690" y="50.3047"/><text fill="#000000" font-family="sans-serif" font-size="14" lengthAdjust="spacing" textLength="135" x="702" y="57.5332">nextAlarm: time_point</text><line style="stroke:#181818;stroke-width:0.5;" x1="683" x2="906" y1="64.6094" y2="64.6094"/><ellipse cx="693" cy="78.9141" fill="#84BE84" rx="3" ry="3" style="stroke:#038048;stroke-width:1.0;"/><text fill="#000000" font-family="sans-serif" font-size="14" lengthAdjust="spacing" textLength="81" x="702" y="83.1426">AlarmClock()</text><ellipse cx="693" cy="96.5234" fill="#84BE84" rx="3" ry="3" style="stroke:#038048;stroke-width:1.0;"/><text fill="#000000" font-family="sans-serif" font-size="14" lengthAdjust="spacing" textLength="199" x="702" y="100.752">setNextAlarm(value: time_point)</text></g><!--reverse link Clock to TimeService--><g id="link_Clock_TimeService"><path codeLine="68" d="M1226.0721,289.6578 C1229.8921,314.2478 1232.59,331.68 1236.2,354.89 " fill="none" id="Clock-backto-TimeService" style="stroke:#181818;stroke-width:1.0;"/><polygon fill="none" points="1224.23,277.8,1221.1984,284.3429,1226.0721,289.6578,1229.1036,283.1149,1224.23,277.8" style="stroke:#181818;stroke-width:1.0;"/></g><!--reverse link AlarmClock to Clock--><g id="link_AlarmClock_Clock"><path codeLine="69" d="M918.1839,107.5962 C975.5639,130.3662 1034.31,153.69 1093.15,177.04 " fill="none" id="AlarmClock-backto-Clock" style="stroke:#181818;stroke-width:1.0;"/><polygon fill="none" points="907.03,103.17,911.1315,109.101,918.1839,107.5962,914.0823,101.6651,907.03,103.17" style="stroke:#181818;stroke-width:1.0;"/></g><!--reverse link AlarmClock to DataStorageService--><g id="link_AlarmClock_DataStorageService"><path codeLine="70" d="M670.6223,101.4269 C614.0123,121.5369 555.87,143.04 494.5,168 C481.19,173.41 467.23,179.38 453.61,185.36 " fill="none" id="AlarmClock-backto-DataStorageService" style="stroke:#181818;stroke-width:1.0;"/><polygon fill="none" points="681.93,97.41,674.9372,95.6492,670.6223,101.4269,677.6151,103.1877,681.93,97.41" style="stroke:#181818;stroke-width:1.0;"/></g><!--reverse link AlarmClock to BuzzerActuator--><g id="link_AlarmClock_BuzzerActuator"><path codeLine="71" d="M726.7376,115.8293 C704.4976,134.6393 688.14,148.47 665.07,168 " fill="none" id="AlarmClock-backto-BuzzerActuator" style="stroke:#181818;stroke-width:1.0;"/><polygon fill="none" points="735.9,108.08,728.7357,108.9005,726.7376,115.8293,733.9019,115.0088,735.9,108.08" style="stroke:#181818;stroke-width:1.0;"/></g><!--reverse link AlarmClock to Pump--><g id="link_AlarmClock_Pump"><path codeLine="72" d="M855.1984,116.5981 C877.6684,138.1081 895.22,154.91 917.67,176.39 " fill="none" id="AlarmClock-backto-Pump" style="stroke:#181818;stroke-width:1.0;"/><polygon fill="none" points="846.53,108.3,848.0982,115.3385,855.1984,116.5981,853.6302,109.5596,846.53,108.3" style="stroke:#181818;stroke-width:1.0;"/></g><!--reverse link AlarmClock to BuzzerSensor--><g id="link_AlarmClock_BuzzerSensor"><path codeLine="73" d="M794.5,120.3 C794.5,144.89 794.5,162.18 794.5,185.39 " fill="none" id="AlarmClock-backto-BuzzerSensor" style="stroke:#181818;stroke-width:1.0;"/><polygon fill="none" points="794.5,108.3,790.5,114.3,794.5,120.3,798.5,114.3,794.5,108.3" style="stroke:#181818;stroke-width:1.0;"/></g><!--reverse link Pump to PumpActuator--><g id="link_Pump_PumpActuator"><path codeLine="75" d="M898.5002,284.3594 C871.1302,306.0794 848.37,324.16 820.9,345.96 " fill="none" id="Pump-backto-PumpActuator" style="stroke:#181818;stroke-width:1.0;"/><polygon fill="none" points="907.9,276.9,900.7136,277.4964,898.5002,284.3594,905.6866,283.763,907.9,276.9" style="stroke:#181818;stroke-width:1.0;"/></g><!--reverse link Pump to WaterLevelSensor--><g id="link_Pump_WaterLevelSensor"><path codeLine="76" d="M969.5,289.8 C969.5,314.39 969.5,331.68 969.5,354.89 " fill="none" id="Pump-backto-WaterLevelSensor" style="stroke:#181818;stroke-width:1.0;"/><polygon fill="none" points="969.5,277.8,965.5,283.8,969.5,289.8,973.5,283.8,969.5,277.8" style="stroke:#181818;stroke-width:1.0;"/></g><!--SRC=[dLHDRy8m3BttL-G8Glo1tXZiXj04J5mcJQ4rRRGqgHAdGqpxxtE_qhIWJHgdvjb-ptcnIIItbZsvsmtCAa77KHls5KMCVajMQUaAY9bJLcGAKfRatBJ1nQHeDkzWKFmimHzJORlpTnGbWTe1b1sq5YFKLmlxOi1QI6Vpc9srbi3LGFJYYdBQz6A4UYABtE16s9Bu8K1r6O0ZuZ7XFubE7C5ieGBfhziMJ0EUAGCSOlMjnzvxvhtMnH6A4Wn7Ps12_p0QQgoTCQ0moFb5QyEH7yXDdX6JgKG2NkW-D7D6ncI84Ihpze1A_RY8Ykvt54LhbD88JC85OtRCXMMj8dtGkvUQ-g7XOHUwsfjgQ8YLOGui9M7sAJ1dMxtdfzMkRxPc7hhi6WX0xuA114G5hqfSwp0zRFtCCKCwl9TQA1mSM4kTV0nxKQSyIrxIO1w4IcX3KaSk2grwmQRWaU5_AQqaDqKlrwefk683ZoewwY5_64R0NLyogxXq41OsqzaAwEKoT2OAjEjGypK5xnzycZ7-NvX6wsLwND4EQHGrozUdUXgFJZSd-W40]--></g></svg>