<?xml version="1.0" encoding="us-ascii" standalone="no"?><svg xmlns="http://www.w3.org/2000/svg" xmlns:xlink="http://www.w3.org/1999/xlink" contentStyleType="text/css" height="436px" preserveAspectRatio="none" style="width:400px;height:436px;background:#FFFFFF;" version="1.1" viewBox="0 0 400 436" width="400px" zoomAndPan="magnify"><defs/><g><!--class PumpActuator--><g id="elem_PumpActuator"><rect codeLine="2" fill="#F1F1F1" height="100.8281" id="PumpActuator" rx="2.5" ry="2.5" style="stroke:#181818;stroke-width:0.5;" width="125" x="7" y="329"/><ellipse cx="23.8" cy="345" fill="#ADD1B2" rx="11" ry="11" style="stroke:#181818;stroke-width:1.0;"/><path d="M26.5656,340.875 Q26.7219,340.6563 26.9094,340.5469 Q27.0969,340.4375 27.3156,340.4375 Q27.6906,340.4375 27.925,340.7031 Q28.1594,340.9531 28.1594,341.5625 L28.1594,343.0156 Q28.1594,343.625 27.925,343.8906 Q27.6906,344.1563 27.3156,344.1563 Q26.9719,344.1563 26.7688,343.9531 Q26.5656,343.7656 26.4563,343.25 Q26.4094,342.8906 26.2219,342.7031 Q25.8938,342.3281 25.2844,342.1094 Q24.675,341.8906 24.05,341.8906 Q23.2844,341.8906 22.6438,342.2188 Q22.0188,342.5469 21.5188,343.2969 Q21.0344,344.0469 21.0344,345.0781 L21.0344,346.1719 Q21.0344,347.4063 21.925,348.2344 Q22.8156,349.0469 24.4094,349.0469 Q25.3469,349.0469 26.0031,348.7969 Q26.3938,348.6406 26.8156,348.2031 Q27.0813,347.9375 27.2219,347.8594 Q27.3781,347.7813 27.5813,347.7813 Q27.9094,347.7813 28.1594,348.0469 Q28.425,348.2969 28.425,348.6406 Q28.425,348.9844 28.0813,349.3906 Q27.5813,349.9688 26.7844,350.2969 Q25.7063,350.75 24.4094,350.75 Q22.8938,350.75 21.6906,350.125 Q20.7063,349.625 20.0188,348.5625 Q19.3313,347.4844 19.3313,346.2031 L19.3313,345.0469 Q19.3313,343.7188 19.9406,342.5781 Q20.5656,341.4219 21.6594,340.8125 Q22.7531,340.1875 23.9875,340.1875 Q24.7219,340.1875 25.3625,340.3594 Q26.0188,340.5156 26.5656,340.875 Z " fill="#000000"/><text fill="#000000" font-family="sans-serif" font-size="14" lengthAdjust="spacing" textLength="89" x="38.2" y="350.7285">PumpActuator</text><line style="stroke:#181818;stroke-width:0.5;" x1="8" x2="131" y1="361" y2="361"/><line style="stroke:#181818;stroke-width:0.5;" x1="8" x2="131" y1="369" y2="369"/><ellipse cx="18" cy="383.3047" fill="#84BE84" rx="3" ry="3" style="stroke:#038048;stroke-width:1.0;"/><text fill="#000000" font-family="sans-serif" font-size="14" lengthAdjust="spacing" textLength="99" x="27" y="387.5332">PumpActuator()</text><ellipse cx="18" cy="400.9141" fill="#84BE84" rx="3" ry="3" style="stroke:#038048;stroke-width:1.0;"/><text fill="#000000" font-family="sans-serif" font-size="14" lengthAdjust="spacing" textLength="97" x="27" y="405.1426">startDispense()</text><ellipse cx="18" cy="418.5234" fill="#84BE84" rx="3" ry="3" style="stroke:#038048;stroke-width:1.0;"/><text fill="#000000" font-family="sans-serif" font-size="14" lengthAdjust="spacing" textLength="96" x="27" y="422.752">stopDispense()</text></g><!--class Pump--><g id="elem_Pump"><rect codeLine="9" fill="#F1F1F1" height="100.8281" id="Pump" rx="2.5" ry="2.5" style="stroke:#181818;stroke-width:0.5;" width="123" x="113" y="168"/><ellipse cx="152.75" cy="184" fill="#ADD1B2" rx="11" ry="11" style="stroke:#181818;stroke-width:1.0;"/><path d="M155.5156,179.875 Q155.6719,179.6563 155.8594,179.5469 Q156.0469,179.4375 156.2656,179.4375 Q156.6406,179.4375 156.875,179.7031 Q157.1094,179.9531 157.1094,180.5625 L157.1094,182.0156 Q157.1094,182.625 156.875,182.8906 Q156.6406,183.1563 156.2656,183.1563 Q155.9219,183.1563 155.7188,182.9531 Q155.5156,182.7656 155.4063,182.25 Q155.3594,181.8906 155.1719,181.7031 Q154.8438,181.3281 154.2344,181.1094 Q153.625,180.8906 153,180.8906 Q152.2344,180.8906 151.5938,181.2188 Q150.9688,181.5469 150.4688,182.2969 Q149.9844,183.0469 149.9844,184.0781 L149.9844,185.1719 Q149.9844,186.4063 150.875,187.2344 Q151.7656,188.0469 153.3594,188.0469 Q154.2969,188.0469 154.9531,187.7969 Q155.3438,187.6406 155.7656,187.2031 Q156.0313,186.9375 156.1719,186.8594 Q156.3281,186.7813 156.5313,186.7813 Q156.8594,186.7813 157.1094,187.0469 Q157.375,187.2969 157.375,187.6406 Q157.375,187.9844 157.0313,188.3906 Q156.5313,188.9688 155.7344,189.2969 Q154.6563,189.75 153.3594,189.75 Q151.8438,189.75 150.6406,189.125 Q149.6563,188.625 148.9688,187.5625 Q148.2813,186.4844 148.2813,185.2031 L148.2813,184.0469 Q148.2813,182.7188 148.8906,181.5781 Q149.5156,180.4219 150.6094,179.8125 Q151.7031,179.1875 152.9375,179.1875 Q153.6719,179.1875 154.3125,179.3594 Q154.9688,179.5156 155.5156,179.875 Z " fill="#000000"/><text fill="#000000" font-family="sans-serif" font-size="14" lengthAdjust="spacing" textLength="36" x="172.25" y="189.7285">Pump</text><line style="stroke:#181818;stroke-width:0.5;" x1="114" x2="235" y1="200" y2="200"/><line style="stroke:#181818;stroke-width:0.5;" x1="114" x2="235" y1="208" y2="208"/><ellipse cx="124" cy="222.3047" fill="#84BE84" rx="3" ry="3" style="stroke:#038048;stroke-width:1.0;"/><text fill="#000000" font-family="sans-serif" font-size="14" lengthAdjust="spacing" textLength="46" x="133" y="226.5332">Pump()</text><ellipse cx="124" cy="239.9141" fill="#84BE84" rx="3" ry="3" style="stroke:#038048;stroke-width:1.0;"/><text fill="#000000" font-family="sans-serif" font-size="14" lengthAdjust="spacing" textLength="97" x="133" y="244.1426">startDispense()</text><ellipse cx="124" cy="257.5234" fill="#84BE84" rx="3" ry="3" style="stroke:#038048;stroke-width:1.0;"/><text fill="#000000" font-family="sans-serif" font-size="14" lengthAdjust="spacing" textLength="96" x="133" y="261.752">stopDispense()</text></g><!--class WaterLevelSensor--><g id="elem_WaterLevelSensor"><rect codeLine="16" fill="#F1F1F1" height="83.2188" id="WaterLevelSensor" rx="2.5" ry="2.5" style="stroke:#181818;stroke-width:0.5;" width="226" x="167.5" y="338"/><ellipse cx="217.75" cy="354" fill="#ADD1B2" rx="11" ry="11" style="stroke:#181818;stroke-width:1.0;"/><path d="M220.5156,349.875 Q220.6719,349.6563 220.8594,349.5469 Q221.0469,349.4375 221.2656,349.4375 Q221.6406,349.4375 221.875,349.7031 Q222.1094,349.9531 222.1094,350.5625 L222.1094,352.0156 Q222.1094,352.625 221.875,352.8906 Q221.6406,353.1563 221.2656,353.1563 Q220.9219,353.1563 220.7188,352.9531 Q220.5156,352.7656 220.4063,352.25 Q220.3594,351.8906 220.1719,351.7031 Q219.8438,351.3281 219.2344,351.1094 Q218.625,350.8906 218,350.8906 Q217.2344,350.8906 216.5938,351.2188 Q215.9688,351.5469 215.4688,352.2969 Q214.9844,353.0469 214.9844,354.0781 L214.9844,355.1719 Q214.9844,356.4063 215.875,357.2344 Q216.7656,358.0469 218.3594,358.0469 Q219.2969,358.0469 219.9531,357.7969 Q220.3438,357.6406 220.7656,357.2031 Q221.0313,356.9375 221.1719,356.8594 Q221.3281,356.7813 221.5313,356.7813 Q221.8594,356.7813 222.1094,357.0469 Q222.375,357.2969 222.375,357.6406 Q222.375,357.9844 222.0313,358.3906 Q221.5313,358.9688 220.7344,359.2969 Q219.6563,359.75 218.3594,359.75 Q216.8438,359.75 215.6406,359.125 Q214.6563,358.625 213.9688,357.5625 Q213.2813,356.4844 213.2813,355.2031 L213.2813,354.0469 Q213.2813,352.7188 213.8906,351.5781 Q214.5156,350.4219 215.6094,349.8125 Q216.7031,349.1875 217.9375,349.1875 Q218.6719,349.1875 219.3125,349.3594 Q219.9688,349.5156 220.5156,349.875 Z " fill="#000000"/><text fill="#000000" font-family="sans-serif" font-size="14" lengthAdjust="spacing" textLength="117" x="238.25" y="359.7285">WaterLevelSensor</text><line style="stroke:#181818;stroke-width:0.5;" x1="168.5" x2="392.5" y1="370" y2="370"/><line style="stroke:#181818;stroke-width:0.5;" x1="168.5" x2="392.5" y1="378" y2="378"/><ellipse cx="178.5" cy="392.3047" fill="#84BE84" rx="3" ry="3" style="stroke:#038048;stroke-width:1.0;"/><text fill="#000000" font-family="sans-serif" font-size="14" lengthAdjust="spacing" textLength="127" x="187.5" y="396.5332">WaterLevelSensor()</text><ellipse cx="178.5" cy="409.9141" fill="#84BE84" rx="3" ry="3" style="stroke:#038048;stroke-width:1.0;"/><text fill="#000000" font-family="sans-serif" font-size="14" lengthAdjust="spacing" textLength="200" x="187.5" y="414.1426">getWaterLevel(): unsigned char</text></g><!--class WaterDispenser--><g id="elem_WaterDispenser"><rect codeLine="21" fill="#F1F1F1" height="100.8281" id="WaterDispenser" rx="2.5" ry="2.5" style="stroke:#181818;stroke-width:0.5;" width="138" x="105.5" y="7"/><ellipse cx="122.3" cy="23" fill="#ADD1B2" rx="11" ry="11" style="stroke:#181818;stroke-width:1.0;"/><path d="M125.0656,18.875 Q125.2219,18.6563 125.4094,18.5469 Q125.5969,18.4375 125.8156,18.4375 Q126.1906,18.4375 126.425,18.7031 Q126.6594,18.9531 126.6594,19.5625 L126.6594,21.0156 Q126.6594,21.625 126.425,21.8906 Q126.1906,22.1563 125.8156,22.1563 Q125.4719,22.1563 125.2688,21.9531 Q125.0656,21.7656 124.9563,21.25 Q124.9094,20.8906 124.7219,20.7031 Q124.3938,20.3281 123.7844,20.1094 Q123.175,19.8906 122.55,19.8906 Q121.7844,19.8906 121.1438,20.2188 Q120.5188,20.5469 120.0188,21.2969 Q119.5344,22.0469 119.5344,23.0781 L119.5344,24.1719 Q119.5344,25.4063 120.425,26.2344 Q121.3156,27.0469 122.9094,27.0469 Q123.8469,27.0469 124.5031,26.7969 Q124.8938,26.6406 125.3156,26.2031 Q125.5813,25.9375 125.7219,25.8594 Q125.8781,25.7813 126.0813,25.7813 Q126.4094,25.7813 126.6594,26.0469 Q126.925,26.2969 126.925,26.6406 Q126.925,26.9844 126.5813,27.3906 Q126.0813,27.9688 125.2844,28.2969 Q124.2063,28.75 122.9094,28.75 Q121.3938,28.75 120.1906,28.125 Q119.2063,27.625 118.5188,26.5625 Q117.8313,25.4844 117.8313,24.2031 L117.8313,23.0469 Q117.8313,21.7188 118.4406,20.5781 Q119.0656,19.4219 120.1594,18.8125 Q121.2531,18.1875 122.4875,18.1875 Q123.2219,18.1875 123.8625,18.3594 Q124.5188,18.5156 125.0656,18.875 Z " fill="#000000"/><text fill="#000000" font-family="sans-serif" font-size="14" lengthAdjust="spacing" textLength="102" x="136.7" y="28.7285">WaterDispenser</text><line style="stroke:#181818;stroke-width:0.5;" x1="106.5" x2="242.5" y1="39" y2="39"/><line style="stroke:#181818;stroke-width:0.5;" x1="106.5" x2="242.5" y1="47" y2="47"/><ellipse cx="116.5" cy="61.3047" fill="#84BE84" rx="3" ry="3" style="stroke:#038048;stroke-width:1.0;"/><text fill="#000000" font-family="sans-serif" font-size="14" lengthAdjust="spacing" textLength="112" x="125.5" y="65.5332">WaterDispenser()</text><ellipse cx="116.5" cy="78.9141" fill="#84BE84" rx="3" ry="3" style="stroke:#038048;stroke-width:1.0;"/><text fill="#000000" font-family="sans-serif" font-size="14" lengthAdjust="spacing" textLength="108" x="125.5" y="83.1426">startDispensing()</text><ellipse cx="116.5" cy="96.5234" fill="#84BE84" rx="3" ry="3" style="stroke:#038048;stroke-width:1.0;"/><text fill="#000000" font-family="sans-serif" font-size="14" lengthAdjust="spacing" textLength="107" x="125.5" y="100.752">stopDispensing()</text></g><!--reverse link WaterDispenser to Pump--><g id="link_WaterDispenser_Pump"><path codeLine="28" d="M174.5,120.37 C174.5,139.32 174.5,148.88 174.5,167.8 " fill="none" id="WaterDispenser-backto-Pump" style="stroke:#181818;stroke-width:1.0;"/><polygon fill="none" points="174.5,108.37,170.5,114.37,174.5,120.37,178.5,114.37,174.5,108.37" style="stroke:#181818;stroke-width:1.0;"/></g><!--reverse link Pump to PumpActuator--><g id="link_Pump_PumpActuator"><path codeLine="30" d="M134.9588,279.3846 C122.4488,298.3346 114.82,309.88 102.32,328.8 " fill="none" id="Pump-backto-PumpActuator" style="stroke:#181818;stroke-width:1.0;"/><polygon fill="none" points="141.57,269.37,134.9262,272.1736,134.9588,279.3846,141.6026,276.581,141.57,269.37" style="stroke:#181818;stroke-width:1.0;"/></g><!--reverse link Pump to WaterLevelSensor--><g id="link_Pump_WaterLevelSensor"><path codeLine="31" d="M214.4054,279.3553 C229.0954,301.3953 239.5,317 253.4,337.85 " fill="none" id="Pump-backto-WaterLevelSensor" style="stroke:#181818;stroke-width:1.0;"/><polygon fill="none" points="207.75,269.37,207.7492,276.5811,214.4054,279.3553,214.4061,272.1442,207.75,269.37" style="stroke:#181818;stroke-width:1.0;"/></g><!--SRC=[Iyv9B2vM22ZDBN1CBYbDBCalKgZcub800cqKKGrDg61nIM9HYKjcSK5gNd4gacX-0P9WBHTNCjnWL0F9D2WyiIIro2UrB3Kd62W5TYL40xe4tAJqr1A4d8QcbK9fNd5cUbvgYa9oHc8HciamAv5yZogErTcPUUdO70uH1bg0PdI-hYuu2BYumC42uyA2626AxYSk0000]--></g></svg>